<svg width="421" height="344" viewBox="0 0 421 344" fill="none" xmlns="http://www.w3.org/2000/svg">
<path d="M304.943 318.537C303.355 319.58 301.229 319.74 298.956 319.663C301.641 319.171 303.836 318.646 303.836 318.646L304.16 317.779C304.404 318.064 304.864 318.168 305.342 318.119C305.175 318.246 305.038 318.388 304.943 318.537ZM412.965 275.536C406.516 249.231 399.954 222.985 394.808 196.379C392.832 186.174 388.481 175.231 379.342 169.386C370.083 163.463 359.048 163.353 348.499 164.963C348.478 164.966 348.462 164.965 348.44 164.968C348.152 165.095 347.838 165.166 347.542 165.13C341.545 164.413 336.538 160.105 332.786 154.72C327.436 162.155 315.142 169.158 307.787 161.831C304.028 168.63 298.58 174.464 291.739 178.02C288.292 180.011 283.603 182.06 278.857 182.06C277.958 182.06 277.08 181.985 276.24 181.835C276.204 181.827 276.168 181.819 276.131 181.814C271.027 181.856 265.981 180.777 261.444 178.456C249.432 192.12 250.262 211.648 250.04 228.809C249.888 240.455 250.717 252.226 249.277 263.819C248.022 273.934 245.612 283.855 244.286 293.959C249.946 292.454 255.807 291.756 262.01 292.403C263.466 292.555 260.746 293.653 260.126 293.589C254.37 292.988 248.978 293.668 243.782 295.104C243.439 295.293 242.934 295.418 242.466 295.482C236.592 297.256 230.957 299.963 225.328 302.868C224.836 303.234 224.428 303.557 224.097 303.824C224.184 303.833 224.266 303.846 224.335 303.875C224.391 303.896 224.44 303.923 224.494 303.944C224.797 303.944 225.099 303.944 225.402 303.944C226.344 303.944 226.354 304.309 225.998 304.691C230.646 307.46 231.792 313.196 231.363 318.477C231.304 319.181 229.926 319.661 229.087 319.5C228.742 319.705 228.396 319.888 228.046 320.055C227.404 320.701 226.539 321.107 225.654 321.35C229.973 321.833 234.325 322.277 238.561 323.217C238.881 322.106 239.346 321.008 239.713 320.16C243.307 311.853 249.127 304.497 258.842 304.214C259.531 304.194 259.659 304.338 259.515 304.529C259.525 304.531 259.536 304.533 259.545 304.533C264.668 300.509 270.85 299.63 276.751 302.715C280.478 293.208 277.71 283.956 272.875 275.251C268.698 267.731 262.329 259.867 261.001 251.152C258.294 233.402 275.056 221.348 275.497 204.227C275.522 203.206 278.421 202.732 278.401 203.449C277.953 220.888 258.457 235.065 264.554 253.118C270.153 269.71 287.365 284.273 279.356 303.009C286.018 300.155 294.059 300.625 301.382 300.736C301.502 300.653 301.633 300.58 301.773 300.521C301.991 300.117 302.499 299.76 303.172 299.751C323.22 299.494 344.524 288.978 364.938 288.753C361.482 280.065 361.208 270.81 358.927 261.803C356.412 251.879 353.421 241.99 353.225 231.677C353.204 230.586 356.115 230.032 356.13 230.9C356.327 241.314 359.617 250.961 361.832 261.026C363.88 270.337 364.422 279.955 368.181 288.812C374.776 289.112 381.268 290.598 387.578 294.004C388.939 294.738 386.34 296.146 385.317 295.593C359.86 281.855 330.401 300.856 303.903 301.676C306.133 306.464 307.656 311.596 306.94 316.923C306.902 317.208 306.744 317.445 306.523 317.636C306.735 317.615 306.942 317.627 307.125 317.695C316.122 321.03 325.235 324.164 334.465 326.787C345.443 329.906 356.869 332.043 368.063 334.259C372.677 335.171 377.701 336.153 382.784 336.666C388.422 336.562 396.193 336.066 403.666 334.442C404.24 334.198 404.812 333.95 405.369 333.665C425.819 323.221 417.263 293.07 412.965 275.536ZM294.038 321.343C291.79 321.222 289.025 321.471 288.454 324.156C288.317 324.79 288.129 325.426 287.803 325.993L298.905 326.684C304.008 326.788 309.111 326.899 314.213 326.913C315.174 326.915 315.113 327.252 314.699 327.59L329.765 327.428C321.782 325.195 313.866 322.696 305.962 319.785C302.269 321.76 298.324 321.575 294.038 321.343ZM322.873 161.291C321.013 162.038 318.759 162.729 316.344 162.997C315.85 163.052 315.386 163.061 314.94 163.051C317.539 163.518 320.309 162.748 322.873 161.291Z" fill="#FFB800"/>
<path d="M288.602 125.331C286.228 126.726 283.71 127.536 280.939 127.156C278.983 126.888 280.467 124.794 281.93 124.994C283.944 125.271 285.592 124.563 287.298 123.561C288.751 122.712 290.297 124.337 288.602 125.331ZM295.522 103.131C295.944 101.421 296.295 99.6811 297.06 98.0819C297.722 96.6912 294.796 96.8896 294.319 97.8886C293.48 99.649 293.064 101.542 292.599 103.425C292.292 104.67 295.244 104.257 295.522 103.131ZM270.089 100.485C270.51 98.7733 270.863 97.0349 271.627 95.4357C272.29 94.045 269.364 94.2434 268.886 95.2423C268.047 97.0028 267.629 98.8956 267.166 100.779C266.86 102.026 269.813 101.612 270.089 100.485ZM290.992 88.511C293.032 87.8808 295.069 87.8577 296.976 88.9058C297.787 89.3517 300.469 88.1694 299.294 87.5221C296.642 86.0642 293.431 86.2305 290.615 87.1013C290.219 87.2235 289.189 87.5892 289.351 88.1954C289.506 88.7816 290.596 88.6333 290.992 88.511ZM270.2 83.7707C269.556 83.7576 268.678 84.0021 268.277 84.5442C267.864 85.1023 268.628 85.3217 269.047 85.3297C269.977 85.3488 270.773 85.8277 271.532 86.3267C272.094 86.6974 272.851 86.5632 273.443 86.3207C273.657 86.2335 274.79 85.5823 274.234 85.2165C272.956 84.3739 271.756 83.8017 270.2 83.7707ZM415.806 328.297C401.574 345.284 374.767 338.082 356.462 334.026C347.423 332.023 338.552 329.884 329.764 327.427C321.781 325.195 313.865 322.696 305.961 319.784C302.266 321.76 298.324 321.573 294.036 321.343C291.788 321.222 289.023 321.471 288.452 324.157C288.316 324.79 288.127 325.426 287.801 325.992C287.773 326.043 287.75 326.096 287.719 326.144C287.637 326.273 287.544 326.393 287.457 326.518C291.274 326.539 295.088 326.606 298.903 326.684C304.006 326.788 309.109 326.899 314.211 326.913C315.172 326.915 315.112 327.25 314.697 327.589C314.694 327.592 314.692 327.595 314.687 327.598C314.921 327.749 315.079 327.981 315.079 328.321C315.079 331.706 315.079 335.089 315.079 338.474C315.079 338.8 314.882 339.073 314.59 339.272C315.898 339.289 313.202 340.361 312.656 340.359C254.39 340.347 196.13 339.181 137.865 339.142C137.058 339.74 135.357 339.801 135.357 338.736C135.357 335.207 135.357 331.677 135.357 328.148C135.357 327.083 137.885 326.548 138.238 327.601C146.033 327.601 153.83 327.605 161.624 327.606C159.87 326.029 161.412 322.306 162.341 320.159C165.807 312.147 171.355 305.039 180.459 304.289C180.787 304.125 181.136 304.011 181.415 304.011C194.565 304.009 207.715 303.963 220.865 303.95C220.936 303.903 221.023 303.851 221.13 303.798C227.773 300.321 234.436 297.006 241.375 294.806C242.864 283.444 245.923 272.281 246.741 260.833C247.581 249.059 247.062 237.212 247.19 225.416C247.371 208.729 247.566 190.528 259.784 177.67C259.807 177.646 259.842 177.62 259.879 177.597C258.343 176.688 256.87 175.637 255.491 174.418C250.715 170.198 246.426 164.498 244.524 158.347C243.925 156.411 243.586 154.407 243.41 152.378C242.845 149.655 242.744 147.207 243.272 145.458C243.313 145.322 243.355 145.173 243.398 145.016C243.502 143.546 243.652 142.086 243.825 140.653C244.559 134.536 245.712 128.483 247.113 122.484C247.206 121.795 247.26 121.378 247.264 121.352L247.742 119.884C249.092 114.394 250.625 108.947 252.242 103.543C252.246 103.532 252.255 103.521 252.26 103.51C251.279 101.073 251.616 97.8785 251.763 95.2554C251.909 92.6462 252.084 90.3687 254.747 89.0992C255.284 88.8427 255.828 88.6403 256.373 88.4609C260.822 79.4591 257.115 68.763 261.506 59.6941C262.264 58.13 263.122 56.6351 264.074 55.2153C263.998 54.9868 264.049 54.7032 264.311 54.3676C278.284 36.5223 304.167 30.2589 325.21 37.6165C324.012 34.5324 324.269 31.6647 325.528 29.256C325.718 28.6147 326.098 28.0516 326.641 27.5516C328.759 24.8994 332.203 23.0247 336.129 22.3784C346.074 20.7401 353.268 22.163 360.392 29.5776C364.074 33.4092 368.184 38.2016 370.396 43.4761C370.634 43.9911 370.852 44.5051 371.036 45.0171C371.251 45.6163 371.398 46.2145 371.501 46.8096C371.762 47.8878 371.939 48.9789 371.992 50.0841C372.361 57.5849 367.044 61.8514 360.699 64.3824C368.281 72.9052 366.092 84.3408 368.414 95.2143C371.151 108.037 382.41 114.623 391.255 123.081C399.949 131.395 405.477 145.014 402.458 157.122C400.557 164.762 395.385 170.906 387.17 171.494C386.788 171.521 386.506 171.465 386.308 171.356L385.979 171.425C391.978 177.334 395.74 185.415 397.341 193.687C402.537 220.531 409.07 247.024 415.575 273.568C418.044 283.639 420.341 293.918 420.86 304.305C421.254 312.14 421.163 321.903 415.806 328.297ZM287.219 93.1262C291.543 89.4459 298.316 91.5601 303.821 92.8125C302.47 91.1232 301.119 89.4309 299.722 87.7786C293.703 80.6495 286.097 71.1888 285.693 61.3864L285.375 61.4315C282.84 66.1288 279.415 70.2249 279.22 75.812C279.188 76.7278 276.279 77.347 276.319 76.1957C276.522 70.3842 280.156 66.1418 282.773 61.2382C282.696 61.2562 282.614 61.2802 282.529 61.3063C281.463 62.172 280.353 62.9856 279.245 63.7932C277.469 65.4294 274.989 67.4374 273.128 68.9063C272.349 69.754 271.632 70.6708 271.014 71.6948C270.886 71.9052 270.672 72.0736 270.417 72.1978C269.893 77.6375 268.634 82.9641 267.251 88.2665C269.192 88.6002 271.127 89.01 273.036 89.3256C273.801 88.8707 275.438 88.5732 275.56 89.0501C275.612 89.2565 275.634 89.482 275.668 89.7004C275.943 89.7725 275.914 89.9098 275.73 90.0651C276.01 92.552 275.318 95.6411 274.846 98.1381C278.083 97.1571 281.36 97.9467 284.242 99.9486C284.623 97.3725 285.365 94.7023 287.219 93.1262ZM286.976 106.682C287.585 108.882 290.147 109.52 292.163 109.799C296.615 110.417 305.626 111.44 306.687 105.442C307.325 101.849 306.387 97.9276 304.924 94.563C300.246 93.8245 290.268 89.7234 288.3 95.2033C287.075 98.618 285.982 103.091 286.976 106.682ZM264.119 100.52C263.674 102.484 263.235 104.553 262.858 106.681C263.855 106.785 264.857 106.832 265.844 106.834C267.254 106.836 268.731 106.841 270.119 106.54C270.154 106.532 270.184 106.503 270.218 106.483C270.487 105.707 270.736 104.966 270.938 104.273C271.602 101.238 272.077 98.1581 272.398 95.069C272.535 93.7594 272.881 92.1452 272.782 90.7264C271.271 90.4689 269.173 89.9178 266.946 89.4278C265.97 93.1241 264.96 96.8104 264.119 100.52ZM314.94 163.051C317.539 163.518 320.307 162.748 322.873 161.292C326.215 159.395 329.206 156.341 331 153.35C331.103 153.181 331.325 153.036 331.603 152.917C328.813 148.426 326.849 143.419 325.854 139.187C324.551 133.655 324.374 128.541 328.617 124.243C330.857 121.974 334.987 119.169 334.957 115.63C334.932 112.462 333.453 110.456 331.352 109.696C329.327 109.535 327.374 110.063 327.34 110.074L327.204 110.093H326.263C325.97 110.372 325.297 110.66 324.709 110.789C323.778 111.339 321.941 110.873 322.354 110.098C322.351 110.096 322.347 110.095 322.343 110.093H321.466L321.319 109.927C321.237 109.837 320.994 109.567 320.635 109.169C316.372 106.705 312.86 103.429 309.636 99.8194C310.194 103.503 309.602 107.188 306.339 109.379C302.074 112.244 293.679 111.833 289.011 110.786C284.7 109.82 283.455 107.787 283.869 103.208C283.908 102.778 283.949 102.323 283.996 101.856C283.426 102.017 282.825 102.046 282.524 101.799C280.275 99.9586 277.367 98.4056 274.564 99.8003C274.328 101.683 274.234 104.378 273.082 105.952C271.321 110.968 268.844 117.602 273.775 118.401C275.399 118.665 272.847 120.054 271.98 119.914C266.027 118.949 267.969 112.911 269.787 107.706C267.649 108.273 265.093 108.429 262.594 108.252C261.197 117.023 261.065 126.594 266.048 133.885C270.362 140.191 276.773 142.318 283.641 142.965C284.86 142.955 286.127 142.918 287.37 142.875C288.754 142.829 290.183 142.781 291.487 142.781C293.638 142.781 295.15 142.915 296.261 143.201C298.93 143.364 301.515 144.056 303.176 146.427C305.828 150.214 306.97 154.737 309.356 158.666C309.372 158.691 309.359 158.725 309.335 158.76C309.334 158.771 309.34 158.781 309.334 158.793C309.27 158.93 309.197 159.064 309.134 159.202C309.181 159.234 309.223 159.27 309.255 159.314C310.917 161.529 312.874 162.68 314.94 163.051ZM254.659 98.3234C254.831 101.232 254.597 104.201 257.679 105.452C258.416 105.75 259.18 105.986 259.956 106.177C261.036 100.478 262.691 94.7403 264.202 89.0411L263.774 88.984L259.878 88.5231C259.553 88.5331 259.236 88.5561 258.934 88.5922C258.901 88.6543 258.873 88.7174 258.839 88.7796C258.541 89.3136 257.072 89.5601 256.354 89.496C256.159 89.6423 255.969 89.7966 255.814 89.9829C254.088 92.044 254.511 95.8475 254.659 98.3234ZM163.791 325.747C165.407 329.271 169.793 324.2 171.185 322.619C171.299 322.489 171.553 322.369 171.863 322.271C173.273 318.5 176.367 314.188 176.981 312.157C177.369 310.877 180.263 310.887 179.769 312.525C178.848 315.564 176.711 318.169 175.285 320.979C174.841 321.856 173.283 324.318 174.024 325.324C174.802 326.381 175.773 327.238 177.158 326.754C181.754 325.145 185.179 319.624 187.766 315.749C187.78 315.728 187.798 315.712 187.814 315.692C188.026 315.295 188.24 314.906 188.449 314.536C188.927 313.694 191.847 313.396 191.159 314.613C190.949 314.982 190.701 315.451 190.434 315.985C190.441 316.18 190.379 316.402 190.21 316.655C190.105 316.813 189.989 316.985 189.879 317.153C188.322 320.577 186.693 325.573 188.75 327.611C190.838 327.611 192.926 327.611 195.015 327.611C196.609 326.63 197.939 324.918 199.056 323.23C199.16 322.963 199.259 322.712 199.348 322.496C199.424 322.308 199.606 322.144 199.84 322.009C200.176 321.473 200.491 320.956 200.785 320.493C202.315 318.081 203.77 315.597 205.739 313.509C206.413 312.796 209.254 312.759 208.075 314.008C205.904 316.307 204.073 319.823 201.941 322.981C201.519 324.32 201.144 326.183 201.236 327.613C202.95 327.613 204.666 327.613 206.38 327.614C207.855 325.903 207.888 323.881 209.275 321.873C212.916 316.597 222.971 321.843 227.744 318.424C227.905 318.309 228.181 318.221 228.489 318.162C228.767 313.109 227.468 307.711 222.504 305.533C208.425 305.541 194.346 305.596 180.265 305.597C179.896 305.597 179.669 305.541 179.552 305.45C172.861 306.021 168.599 312.16 166.004 317.846C165.132 319.772 162.819 323.627 163.791 325.747ZM248.549 325.056C247.37 326.081 246.049 327.014 244.65 327.624C246.17 327.624 247.69 327.625 249.212 327.625C248.656 326.939 248.474 326.058 248.549 325.056ZM221.341 321.47C219.826 321.507 218.271 321.429 216.666 321.343C214.416 321.222 211.651 321.471 211.079 324.156C210.933 324.845 210.729 325.541 210.347 326.144C210.013 326.67 209.637 327.16 209.225 327.615C219.156 327.618 229.086 327.62 239.019 327.623C238.306 326.997 238.122 326.026 238.225 324.944C232.64 323.462 226.766 323.071 221.048 322.371C220.176 322.263 220.64 321.821 221.341 321.47ZM201.723 329.246C202.176 329.833 202.978 329.954 204.293 329.246C203.436 329.246 202.58 329.246 201.723 329.246ZM184.921 323.854C183.616 325.326 182.184 326.653 180.65 327.609C182.337 327.609 184.022 327.609 185.712 327.611C185.009 326.566 184.803 325.268 184.921 323.854ZM167.319 327.606C168.82 327.606 170.319 327.606 171.82 327.607C171.277 326.924 171.099 326.048 171.174 325.055C170.008 326.071 168.702 326.997 167.319 327.606ZM312.338 339.265C312.218 339.123 312.142 338.945 312.142 338.712C312.142 335.328 312.142 331.944 312.142 328.559C312.142 328.46 312.164 328.369 312.199 328.281C309.9 328.27 307.6 328.244 305.301 328.205C305.301 331.62 305.301 335.035 305.301 338.452C305.301 338.776 305.062 339.05 304.724 339.245C307.261 339.251 309.8 339.263 312.338 339.265ZM286.333 327.896C285.912 328.329 285.458 328.729 284.955 329.082C282.846 330.564 280.014 331.802 277.409 331.024C275.764 330.535 275.287 329.201 275.336 327.681C273.374 329.342 271.058 330.338 268.131 330.039C263.358 329.55 262.035 326.985 262.295 323.858C259.622 326.871 256.419 329.336 252.903 329.093C252.663 329.076 252.444 329.047 252.226 329.019C251.925 329.163 251.613 329.258 251.354 329.258C236.679 329.258 222.008 329.253 207.334 329.248C205.254 330.653 202.544 331.773 200.038 331.024C198.999 330.713 198.434 330.061 198.164 329.246C197.299 329.246 196.432 329.246 195.567 329.246C194.158 329.908 192.578 330.227 190.759 330.039C189.501 329.911 188.487 329.633 187.676 329.244C171.212 329.239 154.748 329.234 138.286 329.233C138.286 332.172 138.286 335.112 138.286 338.052C193.049 338.07 247.805 339.091 302.568 339.242C302.453 339.115 302.379 338.951 302.379 338.739C302.379 335.21 302.379 331.682 302.379 328.153C297.028 328.046 291.681 327.927 286.333 327.896ZM304.943 318.536C305.039 318.389 305.174 318.246 305.342 318.119C304.864 318.167 304.405 318.064 304.16 317.779C304.019 317.617 303.949 317.396 303.988 317.111C304.68 311.955 303.157 306.94 300.938 302.329C293.861 302.222 285.546 301.309 279.236 304.738C279.09 305.233 278.307 305.684 277.586 305.777C276.682 306.426 275.827 307.181 275.043 308.073C274.45 308.748 271.536 308.971 272.348 308.047C273.393 306.856 274.528 305.861 275.729 305.02C269.942 301.455 264.203 302.494 259.42 307.629C258.59 308.521 255.78 308.19 257.015 306.865C257.755 306.069 258.53 305.349 259.329 304.705C258.898 305.024 258.012 305.384 257.592 305.395C250.514 305.6 246.065 311.975 243.386 317.846C242.507 319.773 240.194 323.628 241.167 325.748C242.781 329.272 247.167 324.201 248.559 322.62C248.671 322.49 248.927 322.37 249.239 322.273C250.648 318.502 253.742 314.19 254.355 312.159C254.743 310.879 257.637 310.889 257.141 312.527C256.222 315.566 254.085 318.171 252.66 320.981C252.215 321.858 250.658 324.32 251.399 325.326C252.176 326.383 253.147 327.24 254.534 326.756C259.129 325.147 262.555 319.626 265.14 315.751C265.154 315.73 265.171 315.714 265.188 315.694C265.401 315.297 265.614 314.908 265.824 314.538C266.301 313.696 269.221 313.398 268.534 314.615C268.324 314.984 268.075 315.453 267.808 315.986C267.816 316.181 267.753 316.403 267.584 316.656C267.48 316.813 267.364 316.987 267.252 317.155C265.085 321.925 262.763 329.76 270.48 328.371C272.956 327.928 274.893 325.552 276.433 323.234C276.537 322.966 276.636 322.715 276.724 322.499C276.801 322.311 276.983 322.148 277.217 322.012C277.552 321.475 277.867 320.959 278.161 320.496C279.692 318.084 281.147 315.6 283.116 313.512C283.789 312.799 286.63 312.762 285.452 314.011C283.28 316.311 281.449 319.826 279.318 322.984C278.326 326.133 277.583 332.187 282.584 328.672C285.283 326.772 284.967 324.315 286.651 321.876C289.066 318.374 294.309 319.506 298.955 319.664C301.229 319.74 303.356 319.581 304.943 318.536ZM403.666 334.443C404.24 334.199 404.813 333.951 405.369 333.665C425.816 323.222 417.262 293.07 412.964 275.536C406.515 249.231 399.953 222.986 394.807 196.379C392.831 186.174 388.479 175.231 379.341 169.387C370.082 163.464 359.047 163.354 348.498 164.964C348.477 164.967 348.46 164.966 348.439 164.969C348.151 165.096 347.837 165.166 347.541 165.131C341.543 164.414 336.536 160.106 332.784 154.721C327.434 162.156 315.14 169.159 307.785 161.832C304.026 168.631 298.578 174.464 291.738 178.02C288.29 180.011 283.601 182.06 278.855 182.06C277.956 182.06 277.077 181.985 276.238 181.835C276.202 181.827 276.166 181.819 276.129 181.814C271.025 181.856 265.979 180.777 261.442 178.456C249.43 192.12 250.26 211.649 250.038 228.81C249.887 240.456 250.715 252.227 249.275 263.819C248.02 273.935 245.61 283.855 244.284 293.959C249.944 292.454 255.805 291.756 262.008 292.403C263.464 292.555 260.744 293.653 260.124 293.589C254.368 292.988 248.976 293.669 243.78 295.104C243.437 295.293 242.932 295.418 242.464 295.482C236.59 297.256 230.955 299.963 225.326 302.869C224.657 303.214 223.988 303.561 223.319 303.912C223.6 303.838 223.872 303.804 224.095 303.825C224.182 303.833 224.264 303.846 224.333 303.875C224.389 303.896 224.438 303.923 224.492 303.945C224.795 303.945 225.097 303.944 225.4 303.944C226.342 303.944 226.352 304.309 225.996 304.691C230.644 307.46 231.79 313.196 231.361 318.477C231.303 319.182 229.925 319.661 229.085 319.5C228.74 319.706 228.394 319.889 228.044 320.055C226.845 320.626 225.618 320.989 224.362 321.203C224.793 321.253 225.221 321.304 225.652 321.351C229.971 321.834 234.324 322.278 238.559 323.219C238.879 322.107 239.344 321.009 239.711 320.161C243.305 311.854 249.125 304.498 258.84 304.215C259.529 304.195 259.657 304.339 259.513 304.531C259.492 304.558 259.462 304.589 259.429 304.619C259.467 304.59 259.506 304.564 259.543 304.536C264.666 300.511 270.848 299.632 276.749 302.717C280.476 293.21 277.707 283.958 272.873 275.253C268.696 267.734 262.327 259.869 260.998 251.154C258.292 233.404 275.054 221.35 275.494 204.229C275.52 203.208 278.419 202.735 278.399 203.452C277.951 220.89 258.455 235.067 264.552 253.121C270.151 269.712 287.363 284.276 279.354 303.011C286.016 300.157 294.057 300.627 301.38 300.738C301.5 300.655 301.631 300.582 301.771 300.524C301.989 300.119 302.497 299.763 303.17 299.753C323.218 299.496 344.522 288.98 364.936 288.755C361.48 280.067 361.206 270.812 358.925 261.805C356.41 251.881 353.419 241.992 353.223 231.68C353.202 230.589 356.112 230.034 356.127 230.902C356.324 241.317 359.614 250.964 361.829 261.029C363.877 270.34 364.417 279.957 368.178 288.814C374.772 289.114 381.264 290.6 387.574 294.007C388.936 294.74 386.336 296.148 385.313 295.596C359.856 281.858 330.397 300.859 303.899 301.678C306.129 306.466 307.652 311.599 306.936 316.925C306.898 317.21 306.74 317.447 306.519 317.638C306.731 317.617 306.938 317.629 307.121 317.697C316.118 321.032 325.231 324.166 334.461 326.789C345.439 329.908 356.865 332.046 368.059 334.262C372.673 335.174 377.697 336.155 382.78 336.669C389.971 337.396 397.262 337.166 403.666 334.443ZM115.43 341.214C114.178 341.728 112.846 342.172 111.487 342.504C111.479 342.507 111.473 342.511 111.465 342.513C108.186 343.786 104.429 343.849 100.958 343.944C94.9133 344.106 88.8516 343.91 82.822 343.457C75.9243 342.938 63.4801 343.784 59.6197 336.703C54.0943 326.57 54.6687 312.226 56.6886 300.665C40.9725 300.665 25.2583 300.665 9.54221 300.665C9.31265 300.747 9.0831 300.794 8.88963 300.788C2.26355 300.561 0.138402 294.838 0.679715 288.968C0.667686 255.631 0.0812618 222.298 0.0702351 188.96C-0.535234 182.274 2.77279 175.853 10.0384 175.566C10.4805 175.548 10.709 175.622 10.7973 175.74C62.9468 175.74 115.096 175.74 167.246 175.74C167.519 175.628 167.802 175.558 168.034 175.566C168.542 175.587 169.018 175.652 169.479 175.74C171.835 175.74 174.187 175.74 176.541 175.74C176.816 175.628 177.099 175.558 177.329 175.566C184.109 175.836 186.681 182.335 186.152 188.341C186.138 221.383 185.563 254.419 185.545 287.461C186.101 293.882 182.922 299.789 176.287 300.463C176.082 300.523 175.909 300.56 175.807 300.56C149.692 300.56 123.577 300.56 97.4655 300.56C97.0856 303.053 96.7839 305.564 96.6054 308.1C95.7925 319.515 95.187 347.776 114.261 339.942C115.597 339.389 117.302 340.446 115.43 341.214ZM172.547 176.973C175.949 179.25 177.245 183.924 176.854 188.338C176.841 221.566 176.259 254.788 176.245 288.015C176.694 293.037 174.772 297.457 170.792 299.434C172.331 299.434 173.87 299.434 175.409 299.434C175.809 299.169 176.302 298.958 176.664 298.945C181.321 298.766 182.752 293.252 182.686 289.248C182.657 289.207 182.635 289.161 182.635 289.107C182.635 288.813 182.638 288.519 182.639 288.225C182.637 288.206 182.637 288.187 182.635 288.168C182.633 288.151 182.639 288.136 182.639 288.121C182.661 255.066 183.238 222.012 183.247 188.956C183.247 188.933 183.257 188.909 183.26 188.886C183.254 188.845 183.246 188.806 183.25 188.761C183.678 184.041 181.915 177.373 176.182 177.145C175.823 177.131 175.599 177.066 175.479 176.972C174.501 176.973 173.523 176.973 172.547 176.973ZM56.9282 299.328C57.0454 298.699 57.1637 298.073 57.289 297.465C61.4421 277.239 67.58 257.39 61.822 236.797C61.5494 235.819 63.9763 235.081 64.6018 235.8C76.4856 235.8 88.3694 235.8 100.253 235.8C101.058 235.405 102.26 235.35 102.447 236.019C106.479 250.451 104.99 264.878 101.837 279.33C100.369 286.057 98.7316 292.706 97.6399 299.464C97.7171 299.448 97.7863 299.439 97.8354 299.439C120.599 299.439 143.363 299.439 166.126 299.439C166.527 299.174 167.021 298.962 167.386 298.95C172.245 298.782 173.601 293.246 173.362 289.217C173.345 289.186 173.335 289.152 173.335 289.112C173.335 289.007 173.336 288.9 173.336 288.793C173.336 288.786 173.336 288.779 173.335 288.773C173.334 288.767 173.337 288.762 173.336 288.755C173.352 255.49 173.936 222.227 173.945 188.96C173.945 188.937 173.955 188.913 173.958 188.891C173.952 188.85 173.944 188.811 173.948 188.764C174.377 184.046 172.614 177.377 166.881 177.149C166.521 177.135 166.297 177.07 166.177 176.976C113.969 176.976 61.7609 176.976 9.55224 176.976C9.31667 177.077 9.08109 177.141 8.88562 177.149C3.77823 177.352 2.60939 184.223 2.97127 188.185C2.9823 221.569 3.57073 254.951 3.58075 288.336C3.58075 288.359 3.57173 288.381 3.56772 288.404C3.57373 288.445 3.58276 288.485 3.57774 288.532C3.14068 293.12 4.4268 299.015 10.0324 299.207C10.3271 299.217 10.5216 299.263 10.6519 299.331C26.0803 299.328 41.5037 299.328 56.9282 299.328ZM102.501 342.314C100.758 341.626 99.1867 340.453 97.9457 338.616C93.6893 332.321 93.2844 323.918 93.3555 316.555C93.6142 289.598 107.031 263.992 99.5997 237.013C88.0577 237.013 76.5187 237.013 64.9767 237.013C69.654 254.896 65.6654 272.278 61.7388 289.947C58.9661 302.422 56.5462 316.815 59.9736 329.405C61.1895 333.867 62.7102 338.484 67.562 339.602C72.2102 340.674 76.9929 341.18 81.7424 341.563C87.1946 342.002 92.6729 342.297 98.1462 342.279C99.5115 342.273 100.995 342.318 102.501 342.314ZM102.734 114.099C106.181 101.371 109.626 88.6443 113.072 75.9181C113.195 75.4663 113.963 75.1326 114.679 75.0214C115.458 74.6346 116.678 74.4833 116.954 75.0715C116.985 75.1416 117.029 75.2108 117.063 75.2799C133.909 79.8359 150.751 84.3929 167.597 88.9509C168.378 88.482 171.065 88.4239 169.822 89.3737C169.763 89.4188 169.695 89.4569 169.635 89.501C169.766 89.5371 169.897 89.5721 170.029 89.6072C170.531 89.7435 170.678 89.9779 170.618 90.2344C170.615 90.2555 170.62 90.2745 170.613 90.2976C167.167 103.025 163.721 115.752 160.275 128.479C160.229 128.647 160.091 128.8 159.904 128.93C159.398 129.362 158.526 129.7 157.97 129.55C140.11 124.719 122.248 119.888 104.387 115.055C104.013 114.954 103.84 114.797 103.798 114.618C103.154 114.676 102.617 114.533 102.734 114.099ZM119.031 78.0614C119.621 78.7578 120.222 79.4351 120.723 80.0854C123.219 83.3148 125.73 86.5321 128.247 89.7455C131.543 93.9538 134.846 98.1581 138.156 102.354C142.486 100.415 146.815 98.4717 151.138 96.5179C155.243 94.6632 160.983 92.8466 165.133 90.533C149.765 86.3748 134.398 82.2186 119.031 78.0614ZM105.752 113.247C105.88 113.242 106.004 113.248 106.111 113.277C123.346 117.939 140.583 122.602 157.818 127.264C161.073 115.24 164.328 103.218 167.584 91.1943C167.443 91.1563 167.304 91.1192 167.165 91.0811C163.092 93.3777 158.094 94.9297 154.075 96.7463C148.502 99.2663 142.925 101.776 137.342 104.274C136.306 104.739 134.948 104.274 135.585 103.627C131.814 98.8465 128.051 94.059 124.302 89.2615C121.575 85.7756 117.746 82.0372 115.271 78.0764C112.099 89.8006 108.925 101.524 105.752 113.247ZM39.4137 45.0752C36.6319 34.6236 33.8482 24.1719 31.0664 13.7203C30.9752 13.3796 31.312 13.059 31.7862 12.8365C32.14 12.4788 33.0583 12.1011 33.77 12.064C47.4913 8.41479 61.2106 4.76458 74.9328 1.11637C74.9709 1.03321 75.0221 0.949043 75.0581 0.865878C75.4461 -0.0228775 78.304 -0.345516 77.9522 0.465085C77.9502 0.469093 77.9472 0.474103 77.9452 0.478111C78.1246 0.505165 78.273 0.558266 78.3922 0.637423C78.6228 0.696539 78.7952 0.811771 78.8474 1.00616C81.6281 11.4578 84.4138 21.9095 87.1956 32.3611C87.2487 32.5615 87.1495 32.7549 86.967 32.9252C86.8147 33.2028 86.5059 33.4633 85.9706 33.6056C71.303 37.5083 56.6335 41.411 41.9669 45.3117C41.6461 45.3969 41.3835 45.3918 41.1529 45.3528C40.4011 45.5762 39.543 45.5602 39.4137 45.0752ZM36.2951 13.2574C39.954 15.1601 44.498 16.3424 48.1579 17.8124C52.0042 19.3584 55.8536 20.8975 59.7059 22.4295C62.0797 19.139 64.4524 15.8485 66.8162 12.549C68.8882 9.65625 71.7682 6.51104 73.751 3.29368C61.2647 6.61524 48.7804 9.9358 36.2951 13.2574ZM34.4657 14.7994C37.0048 24.3383 39.541 33.8761 42.0842 43.4139C56.0741 39.6946 70.064 35.9712 84.054 32.2489C81.4918 22.6259 78.9295 13.0059 76.3683 3.38284C74.3474 6.58617 71.5787 9.64222 69.4997 12.5399C66.736 16.3936 63.9662 20.2432 61.1915 24.0857C60.6993 24.7661 57.9907 25.0767 58.4519 24.194C53.9309 22.3954 49.4139 20.5898 44.902 18.7733C41.6521 17.4657 37.7988 16.3896 34.4657 14.7994ZM82.2566 111.096C82.5453 111.238 82.6355 111.426 82.5964 111.628C82.5934 111.649 82.5974 111.666 82.5904 111.688C80.3981 119.123 78.2058 126.557 76.0115 133.992C76.0055 134.013 75.9884 134.03 75.9794 134.05C75.9553 134.103 75.9243 134.156 75.8852 134.21C75.4882 134.755 74.3695 135.267 73.7049 135.071C63.2736 131.996 52.8413 128.922 42.4069 125.847C42.1122 125.76 41.9448 125.639 41.8636 125.503C41.4125 125.478 41.0988 125.319 41.198 124.983C43.3913 117.549 45.5846 110.117 47.777 102.682C47.8902 102.295 48.4767 101.999 49.0932 101.853C49.861 101.51 50.9577 101.397 51.2394 101.93C61.0782 104.83 70.9201 107.728 80.759 110.63C81.6542 110.525 82.6586 110.637 82.2566 111.096ZM52.9154 104.714C54.3529 106.717 56.1463 108.64 57.5006 110.452C59.3771 112.964 61.2597 115.472 63.1453 117.977C65.5762 116.953 68.006 115.926 70.4329 114.894C72.5009 114.014 75.4481 113.045 77.6946 112.017C69.4345 109.582 61.1755 107.149 52.9154 104.714ZM79.513 112.714C77.1532 113.845 74.5259 114.682 72.2323 115.658C68.9904 117.037 65.7456 118.411 62.4987 119.778C61.5554 120.175 60.3384 119.823 60.5971 119.287C58.528 116.537 56.461 113.785 54.403 111.027C53.0267 109.183 51.2193 107.244 49.8069 105.211C47.9494 111.505 46.0929 117.8 44.2354 124.095C54.0241 126.98 63.8109 129.866 73.6016 132.75C75.5724 126.073 77.5422 119.394 79.513 112.714ZM164.644 35.4111C168.509 30.2519 172.376 25.0927 176.242 19.9346C176.484 19.6109 177.24 19.3734 177.908 19.3123C178.667 19.1069 179.487 19.151 179.53 19.6009C179.536 19.659 179.548 19.7181 179.553 19.7762C186.381 24.8883 193.209 30.0004 200.039 35.1125C200.85 35.0604 201.208 35.4492 200.994 35.85C201.095 35.9512 201.157 36.0534 201.183 36.1576C201.188 36.1796 201.193 36.2017 201.196 36.2237C201.228 36.5093 201.023 36.7888 200.703 37.0143C197.002 41.953 193.301 46.8918 189.6 51.8316C189.489 52.6041 187.717 53.2915 187.008 52.7594C179.767 47.3387 172.527 41.918 165.285 36.4973C165.078 36.342 164.984 36.1766 164.964 36.0133C164.58 35.9452 164.381 35.7608 164.644 35.4111ZM180.477 23.717C180.973 25.2631 181.554 26.7971 181.979 28.239C182.725 30.786 183.478 33.333 184.236 35.878C186.497 35.7809 188.758 35.6827 191.019 35.5775C192.4 35.5143 194.39 35.5153 196.167 35.4622C190.936 31.5485 185.706 27.6338 180.477 23.717ZM167.63 35.0003C174.441 40.1004 181.255 45.2005 188.068 50.3015C191.413 45.8387 194.757 41.3749 198.101 36.9121C198.054 36.877 198.006 36.8409 197.958 36.8069C195.725 37.0464 193.359 36.9411 191.197 37.0423C188.15 37.1846 185.101 37.3199 182.053 37.4492C181.196 37.4862 181.126 37.2027 181.403 36.871C181.398 36.858 181.387 36.849 181.383 36.8349C180.546 34.0224 179.714 31.2068 178.891 28.3913C178.343 26.5226 177.508 24.4885 177.006 22.4896C173.881 26.6598 170.753 30.8301 167.63 35.0003ZM179.971 140.518C187.907 137.364 195.845 134.207 203.782 131.053C204.059 130.222 206.494 129.82 206.675 130.464C206.95 130.51 207.17 130.626 207.255 130.84C209.638 136.831 212.023 142.82 214.406 148.812C214.448 148.917 214.437 149.026 214.385 149.131C214.386 149.4 214.154 149.692 213.558 149.928C205.152 153.27 196.746 156.612 188.341 159.954C188.062 160.065 187.774 160.1 187.503 160.086C186.779 160.297 185.967 160.286 185.778 159.814C183.395 153.824 181.011 147.834 178.629 141.844C178.523 141.573 178.757 141.297 179.133 141.079C179.188 141.026 179.252 140.975 179.324 140.923C179.456 140.777 179.661 140.641 179.971 140.518ZM205.225 133.822C204.371 135.334 203.377 136.812 202.606 138.215C201.196 140.777 199.781 143.337 198.36 145.894C197.985 146.569 195.666 146.945 195.591 146.227C192.896 145.509 190.199 144.786 187.508 144.057C185.861 143.611 183.997 143.284 182.229 142.808C184.246 147.878 186.261 152.948 188.279 158.018C195.927 154.977 203.577 151.937 211.226 148.896C209.226 143.87 207.225 138.847 205.225 133.822ZM183.375 141.121C185.504 141.822 187.887 142.195 189.944 142.75C192.112 143.335 194.281 143.917 196.452 144.496C197.515 142.58 198.577 140.663 199.634 138.744C200.568 137.052 201.819 135.247 202.771 133.411C196.306 135.98 189.841 138.552 183.375 141.121Z" fill="#F2F2F2"/>
</svg>
